<svg xmlns="http://www.w3.org/2000/svg" xmlns:xlink="http://www.w3.org/1999/xlink" width="600" height="303.94"><rect width="600" height="303.94" rx="0" ry="0" class="a"/><svg height="303.94" viewBox="0 0 60 30.394" width="600" xmlns="http://www.w3.org/2000/svg" xmlns:xlink="http://www.w3.org/1999/xlink"><style>@keyframes o{0%{transform:translateX(0)}5.8%{transform:translateX(-120px)}6.1%{transform:translateX(-240px)}19%{transform:translateX(-300px)}20.5%{transform:translateX(-360px)}21.7%{transform:translateX(-420px)}22.2%{transform:translateX(-480px)}23.6%{transform:translateX(-540px)}25%{transform:translateX(-600px)}26.4%{transform:translateX(-660px)}30.1%{transform:translateX(-720px)}31.6%{transform:translateX(-780px)}32.6%{transform:translateX(-840px)}36.8%{transform:translateX(-900px)}39%{transform:translateX(-960px)}40.1%{transform:translateX(-1020px)}41.1%{transform:translateX(-1140px)}41.2%{transform:translateX(-1200px)}42.5%{transform:translateX(-1260px)}46.5%{transform:translateX(-1320px)}50.5%{transform:translateX(-1380px)}54.5%{transform:translateX(-1440px)}58.5%{transform:translateX(-1500px)}62.6%{transform:translateX(-1560px)}66.6%{transform:translateX(-1620px)}70.6%{transform:translateX(-1680px)}74.6%{transform:translateX(-1740px)}74.7%{transform:translateX(-1860px)}75%{transform:translateX(-1980px)}to{transform:translateX(-2040px)}}.a{fill:#282d35}.c,.d{fill:#a8cc8c;font-weight:700}.d{fill:#66c2cd}.e{fill:#b9c0cb}.f{fill:#e88388}</style><g font-size="1.67" font-family="Monaco,Consolas,Menlo,'Bitstream Vera Sans Mono','Powerline Symbols',monospace"><defs><symbol id="1"><text y="1.67" class="c">➜</text><text x="3.006" y="1.67" class="d">test</text></symbol><symbol id="2"><text y="1.67" class="c">➜</text><text x="3.006" y="1.67" class="d">test</text><text x="8.016" y="1.67" class="e">node</text></symbol><symbol id="3"><text y="1.67" class="c">➜</text><text x="3.006" y="1.67" class="d">test</text><text x="8.016" y="1.67" class="e">node</text><text x="13.026" y="1.67" class="e">jokcy.js</text></symbol><symbol id="4"><path class="f" d="M0 0h6v2.171H0z"/><text y="1.67" class="e">React!</text></symbol><symbol id="5"><text y="1.67" fill="#71bef2">Vue!</text></symbol><symbol id="6"><text y="1.67" fill="#dbab79">Angular!</text></symbol><symbol id="7"><text y="1.67" fill="#66c2cd">Nodejs!</text></symbol><symbol id="8"><text y="1.67" class="f">Webpack!</text></symbol><symbol id="9"><text y="1.67" fill="#d290e4">Flutter!</text></symbol><symbol id="10"><text y="1.67" fill="#6f7783">Webassbly!</text></symbol><symbol id="11"><text y="1.67" fill="#73bef3">前端的知识</text></symbol><symbol id="12"><text y="1.67" class="f">我全都要！</text></symbol><symbol id="a"><path fill="transparent" d="M0 0h60v14H0z"/></symbol><symbol id="b"><path fill="#6f7683" d="M0 0h1.102v2.171H0z"/></symbol></defs><path class="a" d="M0 0h60v30.394H0z"/><g style="animation-duration:12.435445s;animation-iteration-count:infinite;animation-name:o;animation-timing-function:steps(1,end)"><svg width="2100"><svg><use xlink:href="#a"/><use xlink:href="#b" x="-.004"/></svg><svg x="60"><use xlink:href="#a"/><use xlink:href="#b" x="-.004"/></svg><svg x="120"><use xlink:href="#a"/><use xlink:href="#b" x="-.004"/></svg><svg x="180"><use xlink:href="#a"/><use xlink:href="#b" x="7.996"/><use xlink:href="#1"/></svg><svg x="240"><use xlink:href="#a"/><use xlink:href="#b" x="7.996"/><use xlink:href="#1"/></svg><svg x="300"><use xlink:href="#a"/><use xlink:href="#b" x="8.996"/><text y="1.67" class="c">➜</text><text x="3.006" y="1.67" class="d">test</text><text x="8.016" y="1.67" class="e">n</text></svg><svg x="360"><use xlink:href="#a"/><use xlink:href="#b" x="9.996"/><text y="1.67" class="c">➜</text><text x="3.006" y="1.67" class="d">test</text><text x="8.016" y="1.67" class="e">no</text></svg><svg x="420"><use xlink:href="#a"/><use xlink:href="#b" x="10.996"/><text y="1.67" class="c">➜</text><text x="3.006" y="1.67" class="d">test</text><text x="8.016" y="1.67" class="e">nod</text></svg><svg x="480"><use xlink:href="#a"/><use xlink:href="#b" x="11.996"/><use xlink:href="#2"/></svg><svg x="540"><use xlink:href="#a"/><use xlink:href="#b" x="12.996"/><use xlink:href="#2"/></svg><svg x="600"><use xlink:href="#a"/><use xlink:href="#b" x="13.996"/><text y="1.67" class="c">➜</text><text x="3.006" y="1.67" class="d">test</text><text x="8.016" y="1.67" class="e">node</text><text x="13.026" y="1.67" class="e">j</text></svg><svg x="660"><use xlink:href="#a"/><use xlink:href="#b" x="14.996"/><text y="1.67" class="c">➜</text><text x="3.006" y="1.67" class="d">test</text><text x="8.016" y="1.67" class="e">node</text><text x="13.026" y="1.67" class="e">jo</text></svg><svg x="720"><use xlink:href="#a"/><use xlink:href="#b" x="15.996"/><text y="1.67" class="c">➜</text><text x="3.006" y="1.67" class="d">test</text><text x="8.016" y="1.67" class="e">node</text><text x="13.026" y="1.67" class="e">jok</text></svg><svg x="780"><use xlink:href="#a"/><use xlink:href="#b" x="16.996"/><text y="1.67" class="c">➜</text><text x="3.006" y="1.67" class="d">test</text><text x="8.016" y="1.67" class="e">node</text><text x="13.026" y="1.67" class="e">jokc</text></svg><svg x="840"><use xlink:href="#a"/><use xlink:href="#b" x="17.996"/><text y="1.67" class="c">➜</text><text x="3.006" y="1.67" class="d">test</text><text x="8.016" y="1.67" class="e">node</text><text x="13.026" y="1.67" class="e">jokcy</text></svg><svg x="900"><use xlink:href="#a"/><use xlink:href="#b" x="18.996"/><text y="1.67" class="c">➜</text><text x="3.006" y="1.67" class="d">test</text><text x="8.016" y="1.67" class="e">node</text><text x="13.026" y="1.67" class="e">jokcy.</text></svg><svg x="960"><use xlink:href="#a"/><use xlink:href="#b" x="19.996"/><text y="1.67" class="c">➜</text><text x="3.006" y="1.67" class="d">test</text><text x="8.016" y="1.67" class="e">node</text><text x="13.026" y="1.67" class="e">jokcy.j</text></svg><svg x="1020"><use xlink:href="#a"/><use xlink:href="#b" x="20.996"/><use xlink:href="#3"/></svg><svg x="1080"><use xlink:href="#a"/><use xlink:href="#b" x="20.996"/><use xlink:href="#3"/></svg><svg x="1140"><use xlink:href="#a"/><use xlink:href="#b" x="-.004" y="2.146"/><use xlink:href="#3"/></svg><svg x="1200"><use xlink:href="#a"/><use xlink:href="#b" x="-.004" y="2.146"/><use xlink:href="#3"/></svg><svg x="1260"><use xlink:href="#a"/><use xlink:href="#b" x="-.004" y="4.317"/><use xlink:href="#3"/><use xlink:href="#4" y="2.171"/></svg><svg x="1320"><use xlink:href="#a"/><use xlink:href="#b" x="-.004" y="6.488"/><use xlink:href="#3"/><use xlink:href="#4" y="2.171"/><use xlink:href="#5" y="4.342"/></svg><svg x="1380"><use xlink:href="#a"/><use xlink:href="#b" x="-.004" y="8.659"/><use xlink:href="#3"/><use xlink:href="#4" y="2.171"/><use xlink:href="#5" y="4.342"/><use xlink:href="#6" y="6.513"/></svg><svg x="1440"><use xlink:href="#a"/><use xlink:href="#b" x="-.004" y="10.83"/><use xlink:href="#3"/><use xlink:href="#4" y="2.171"/><use xlink:href="#5" y="4.342"/><use xlink:href="#6" y="6.513"/><use xlink:href="#7" y="8.684"/></svg><svg x="1500"><use xlink:href="#a"/><use xlink:href="#b" x="-.004" y="13.001"/><use xlink:href="#3"/><use xlink:href="#4" y="2.171"/><use xlink:href="#5" y="4.342"/><use xlink:href="#6" y="6.513"/><use xlink:href="#7" y="8.684"/><use xlink:href="#8" y="10.855"/></svg><svg x="1560"><use xlink:href="#a"/><use xlink:href="#b" x="-.004" y="15.172"/><use xlink:href="#3"/><use xlink:href="#4" y="2.171"/><use xlink:href="#5" y="4.342"/><use xlink:href="#6" y="6.513"/><use xlink:href="#7" y="8.684"/><use xlink:href="#8" y="10.855"/><use xlink:href="#9" y="13.026"/></svg><svg x="1620"><use xlink:href="#a"/><use xlink:href="#b" x="-.004" y="17.343"/><use xlink:href="#3"/><use xlink:href="#4" y="2.171"/><use xlink:href="#5" y="4.342"/><use xlink:href="#6" y="6.513"/><use xlink:href="#7" y="8.684"/><use xlink:href="#8" y="10.855"/><use xlink:href="#9" y="13.026"/><use xlink:href="#10" y="15.197"/></svg><svg x="1680"><use xlink:href="#a"/><use xlink:href="#b" x="-.004" y="19.514"/><use xlink:href="#3"/><use xlink:href="#4" y="2.171"/><use xlink:href="#5" y="4.342"/><use xlink:href="#6" y="6.513"/><use xlink:href="#7" y="8.684"/><use xlink:href="#8" y="10.855"/><use xlink:href="#9" y="13.026"/><use xlink:href="#10" y="15.197"/><use xlink:href="#11" y="17.368"/></svg><svg x="1740"><use xlink:href="#a"/><use xlink:href="#b" x="-.004" y="21.685"/><use xlink:href="#3"/><use xlink:href="#4" y="2.171"/><use xlink:href="#5" y="4.342"/><use xlink:href="#6" y="6.513"/><use xlink:href="#7" y="8.684"/><use xlink:href="#8" y="10.855"/><use xlink:href="#9" y="13.026"/><use xlink:href="#10" y="15.197"/><use xlink:href="#11" y="17.368"/><use xlink:href="#12" y="19.539"/></svg><svg x="1800"><use xlink:href="#a"/><use xlink:href="#b" x="-.004" y="21.685"/><use xlink:href="#3"/><use xlink:href="#4" y="2.171"/><use xlink:href="#5" y="4.342"/><use xlink:href="#6" y="6.513"/><use xlink:href="#7" y="8.684"/><use xlink:href="#8" y="10.855"/><use xlink:href="#9" y="13.026"/><use xlink:href="#10" y="15.197"/><use xlink:href="#11" y="17.368"/><use xlink:href="#12" y="19.539"/></svg><svg x="1860"><use xlink:href="#a"/><use xlink:href="#b" x="-.004" y="21.685"/><use xlink:href="#3"/><use xlink:href="#4" y="2.171"/><use xlink:href="#5" y="4.342"/><use xlink:href="#6" y="6.513"/><use xlink:href="#7" y="8.684"/><use xlink:href="#8" y="10.855"/><use xlink:href="#9" y="13.026"/><use xlink:href="#10" y="15.197"/><use xlink:href="#11" y="17.368"/><use xlink:href="#12" y="19.539"/></svg><svg x="1920"><use xlink:href="#a"/><use xlink:href="#b" x="7.996" y="21.685"/><use xlink:href="#3"/><use xlink:href="#4" y="2.171"/><use xlink:href="#5" y="4.342"/><use xlink:href="#6" y="6.513"/><use xlink:href="#7" y="8.684"/><use xlink:href="#8" y="10.855"/><use xlink:href="#9" y="13.026"/><use xlink:href="#10" y="15.197"/><use xlink:href="#11" y="17.368"/><use xlink:href="#12" y="19.539"/><use xlink:href="#1" y="21.71"/></svg><svg x="1980"><use xlink:href="#a"/><use xlink:href="#b" x="7.996" y="21.685"/><use xlink:href="#3"/><use xlink:href="#4" y="2.171"/><use xlink:href="#5" y="4.342"/><use xlink:href="#6" y="6.513"/><use xlink:href="#7" y="8.684"/><use xlink:href="#8" y="10.855"/><use xlink:href="#9" y="13.026"/><use xlink:href="#10" y="15.197"/><use xlink:href="#11" y="17.368"/><use xlink:href="#12" y="19.539"/><use xlink:href="#1" y="21.71"/></svg><svg x="2040"><use xlink:href="#a"/><use xlink:href="#b" x="-.004" y="23.856"/><use xlink:href="#3"/><use xlink:href="#4" y="2.171"/><use xlink:href="#5" y="4.342"/><use xlink:href="#6" y="6.513"/><use xlink:href="#7" y="8.684"/><use xlink:href="#8" y="10.855"/><use xlink:href="#9" y="13.026"/><use xlink:href="#10" y="15.197"/><use xlink:href="#11" y="17.368"/><use xlink:href="#12" y="19.539"/><use xlink:href="#1" y="21.71"/></svg></svg></g></g></svg></svg>